<?xml version="1.0" standalone="no"?>
<!DOCTYPE svg PUBLIC "-//W3C//DTD SVG 20010904//EN"
 "http://www.w3.org/TR/2001/REC-SVG-20010904/DTD/svg10.dtd">
<svg version="1.0" xmlns="http://www.w3.org/2000/svg"
 width="404.000000pt" height="404.000000pt" viewBox="0 0 404.000000 404.000000"
 preserveAspectRatio="xMidYMid meet">
<metadata>
Created by potrace 1.11, written by Peter Selinger 2001-2013
</metadata>
<g transform="translate(0.000000,404.000000) scale(0.100000,-0.100000)"
fill="#000000" stroke="none">
<path d="M2070 3784 c-99 -121 -129 -225 -137 -469 -4 -129 -1 -197 11 -284
27 -182 134 -531 163 -531 14 0 68 60 97 108 14 23 31 42 36 42 6 0 10 -21 10
-47 0 -60 17 -123 33 -123 17 0 85 46 130 89 191 179 306 606 282 1048 -5 97
-11 136 -20 140 -25 9 -90 -31 -155 -96 -69 -70 -121 -158 -180 -308 -18 -46
-36 -81 -40 -78 -4 2 -10 32 -14 66 -11 110 -107 450 -138 486 -18 22 -31 14
-78 -43z"/>
<path d="M1236 3626 c-56 -86 -10 -328 100 -525 13 -24 24 -47 24 -52 0 -17
-21 -9 -43 16 -32 35 -246 169 -355 222 -105 50 -159 63 -173 42 -20 -31 33
-207 87 -289 97 -147 276 -321 454 -440 83 -57 337 -190 361 -190 35 0 36 79
3 178 -8 23 -13 46 -10 50 3 5 39 -24 80 -65 41 -40 79 -73 85 -73 20 0 44 65
49 132 11 155 -88 396 -268 652 -92 130 -326 366 -364 366 -8 0 -21 -11 -30
-24z"/>
<path d="M3313 3235 c-249 -56 -553 -362 -755 -761 -35 -69 -59 -127 -55 -136
4 -13 21 -15 97 -12 l92 3 -47 -50 c-37 -39 -45 -54 -39 -72 9 -30 19 -35 83
-43 125 -16 267 22 461 123 152 79 311 203 493 385 109 110 121 138 65 157
-114 40 -265 16 -443 -71 -79 -39 -123 -45 -91 -13 30 30 144 212 205 327 91
172 82 196 -66 163z"/>
<path d="M397 2621 c-59 -4 -91 -11 -96 -20 -39 -63 197 -272 359 -317 101
-28 102 -30 15 -49 -267 -57 -478 -124 -499 -157 -16 -26 44 -82 139 -129 134
-65 182 -74 410 -74 232 1 350 18 575 87 200 60 223 79 158 135 -17 16 -45 40
-62 55 l-31 27 78 1 c130 0 144 22 74 116 -73 100 -138 147 -287 210 -216 91
-545 136 -833 115z"/>
<path d="M3383 2043 c11 -3 16 -11 13 -19 -6 -16 29 -38 45 -29 14 9 39 -14
39 -36 0 -10 -9 -20 -20 -24 -10 -3 -31 -20 -44 -36 -28 -33 -46 -31 -46 7 0
41 -61 24 -73 -21 -4 -18 -5 -18 -6 3 -1 20 -11 27 -33 23 -12 -2 -9 17 3 25
6 3 9 15 6 25 -3 11 -2 19 3 19 4 0 10 6 13 14 5 11 -14 13 -109 10 -66 -3
-114 0 -114 5 0 5 -14 5 -34 -1 -31 -10 -34 -14 -30 -42 2 -17 0 -26 -4 -20
-11 16 -49 23 -49 9 0 -7 8 -10 19 -7 13 3 18 -1 18 -18 0 -13 8 -24 20 -27
21 -6 26 -18 11 -27 -4 -3 -8 -24 -8 -46 0 -32 -7 -48 -29 -71 -40 -42 -82
-63 -98 -50 -7 6 -16 8 -19 4 -4 -3 -7 12 -7 35 0 22 -5 44 -11 47 -12 8 -10
71 4 98 8 17 6 17 -13 7 -12 -6 -24 -9 -27 -6 -8 8 -33 -42 -33 -65 0 -11 -4
-19 -9 -19 -11 0 -21 -85 -12 -115 9 -33 49 -77 63 -69 7 4 8 3 4 -4 -11 -18
12 -52 34 -52 11 0 20 -5 20 -11 0 -6 5 -9 12 -7 6 2 22 -7 35 -20 13 -12 28
-20 34 -17 6 4 18 0 27 -7 9 -8 38 -15 64 -16 30 0 58 -8 75 -20 16 -11 36
-21 46 -23 17 -4 17 -5 -3 -26 l-21 -23 23 0 c13 0 32 -6 43 -14 22 -14 211
-30 219 -18 16 26 -37 42 -152 47 -108 3 -100 15 11 15 59 0 98 -4 103 -11 4
-8 9 -7 16 2 7 11 11 11 15 2 2 -7 11 -13 18 -13 7 0 16 6 18 13 4 10 6 10 6
0 1 -8 14 -13 32 -13 22 0 32 5 36 20 3 11 10 20 17 20 21 0 66 47 66 69 0 24
3 25 32 9 41 -24 68 -52 68 -70 0 -10 7 -18 15 -18 8 0 15 -6 15 -14 0 -7 -7
-19 -15 -26 -12 -10 -15 -9 -15 4 0 13 -3 14 -12 6 -7 -6 -22 -17 -33 -25 -30
-21 -15 -26 76 -28 68 -2 84 1 87 13 3 19 -55 109 -76 117 -8 3 -35 26 -61 50
-45 44 -159 108 -233 132 -42 14 -44 17 -25 36 12 12 33 17 120 29 10 1 23 9
27 17 5 8 15 14 21 14 13 0 54 65 41 65 -4 0 0 5 8 10 13 8 13 11 1 22 -12 11
-13 10 -6 -2 5 -9 4 -12 -1 -7 -5 5 -9 31 -9 58 0 40 3 49 18 49 9 0 17 7 17
15 0 12 -4 13 -18 6 -14 -7 -21 -5 -30 9 -9 14 -8 20 1 23 7 3 3 6 -8 7 -11 1
-27 3 -35 5 -82 17 -140 25 -174 24 -23 -1 -33 -3 -23 -6z m54 -9 c-3 -3 -12
-4 -19 -1 -8 3 -5 6 6 6 11 1 17 -2 13 -5z m40 -10 c-3 -3 -12 -4 -19 -1 -8 3
-5 6 6 6 11 1 17 -2 13 -5z m-137 -134 c0 -13 -5 -18 -15 -14 -11 5 -12 9 -2
20 16 18 17 17 17 -6z m100 -38 c0 -4 -6 -14 -12 -22 -11 -12 -10 -12 5 -1 14
11 20 11 32 1 18 -15 18 -20 -1 -45 -12 -16 -16 -17 -23 -6 -6 9 -11 10 -15 2
-4 -6 -11 -11 -17 -11 -12 0 -9 61 4 78 11 14 27 16 27 4z"/>
<path d="M3318 2012 c-10 -2 -18 -8 -18 -13 0 -13 17 -11 26 2 4 8 9 7 15 -2
7 -12 11 -11 26 4 11 10 13 17 5 17 -7 0 -12 -5 -12 -11 0 -8 -4 -8 -12 -2 -7
5 -21 8 -30 5z"/>
<path d="M3735 1970 c-19 -7 -19 -7 4 -19 17 -9 20 -16 12 -24 -6 -6 -11 -24
-11 -39 0 -18 -5 -28 -15 -28 -9 0 -19 -8 -22 -17 -4 -10 -16 -25 -27 -34 -10
-9 -16 -21 -12 -27 9 -14 38 -16 51 -3 6 5 35 14 67 20 73 13 128 36 128 54 0
19 -69 81 -117 105 -23 12 -46 17 -58 12z"/>
<path d="M2888 1953 c6 -2 18 -2 25 0 6 3 1 5 -13 5 -14 0 -19 -2 -12 -5z"/>
<path d="M2745 1935 c-5 -2 -36 -11 -67 -20 -79 -22 -78 -54 3 -103 43 -26 53
-28 45 -7 -3 8 6 36 19 62 33 61 33 80 0 68z"/>
<path d="M1240 1762 c-14 -2 -29 -8 -35 -14 -7 -7 1 -8 25 -3 51 11 60 24 10
17z"/>
<path d="M2613 1746 c-28 -13 -29 -20 -2 -44 27 -26 72 -27 64 -2 -3 11 1 20
10 24 8 3 15 12 15 21 0 18 -52 19 -87 1z"/>
<path d="M1131 1725 c-21 -7 -29 -14 -20 -17 17 -6 79 12 79 24 0 10 -17 9
-59 -7z"/>
<path d="M1477 1712 c-9 -10 -20 -34 -23 -53 l-6 -34 36 36 c25 24 35 40 30
52 -8 22 -17 21 -37 -1z"/>
<path d="M1175 1674 c-27 -8 -65 -12 -83 -10 -18 3 -30 1 -27 -4 3 -4 -13 -17
-34 -28 -55 -29 -85 -46 -91 -52 -3 -3 -23 -18 -46 -33 -65 -44 -138 -123
-147 -159 -17 -64 -14 -82 16 -96 15 -7 27 -20 27 -29 0 -10 6 -13 16 -9 8 3
13 2 10 -3 -3 -5 1 -14 9 -21 11 -9 12 -17 5 -30 -21 -39 -4 -40 62 -5 80 42
90 28 31 -40 -68 -77 -246 -403 -241 -439 3 -23 45 -34 76 -20 10 4 25 6 34 5
9 -1 35 7 57 19 23 11 41 18 41 16 0 -3 26 9 58 26 69 38 189 128 170 128 -9
0 -9 3 2 10 8 5 11 10 6 10 -5 0 -3 7 4 15 7 8 16 12 21 9 5 -3 9 3 9 13 1 17
1 17 14 1 11 -16 16 -13 52 25 87 92 172 204 209 277 l18 34 -24 -16 c-13 -8
-25 -24 -27 -34 -3 -20 -40 -50 -49 -40 -5 4 6 20 33 49 7 7 8 20 3 34 -6 17
-3 25 17 37 25 17 32 50 14 61 -8 5 -8 11 -1 19 15 18 30 133 18 145 -5 5 -4
11 2 15 18 12 12 36 -9 36 -24 0 -25 8 -5 31 21 22 10 69 -15 69 -11 0 -22 -4
-25 -10 -7 -12 -75 -14 -75 -2 0 14 -82 11 -135 -4z m105 -24 c0 -5 -2 -10 -4
-10 -3 0 -8 5 -11 10 -3 6 -1 10 4 10 6 0 11 -4 11 -10z m0 -40 c0 -5 -4 -10
-10 -10 -5 0 -10 5 -10 10 0 6 5 10 10 10 6 0 10 -4 10 -10z m-208 -31 c14 -7
17 -16 12 -37 -5 -22 -4 -25 7 -14 15 14 29 16 29 4 0 -5 -17 -17 -38 -26 -24
-11 -38 -24 -39 -37 -2 -20 12 -26 22 -9 7 11 35 -12 35 -29 0 -6 -11 -18 -25
-27 -13 -9 -27 -24 -30 -35 -8 -23 -49 -25 -67 -3 -7 8 -28 32 -47 52 -20 21
-36 49 -37 64 -1 16 1 26 5 23 4 -2 23 12 42 31 47 50 91 64 131 43z m168 -9
c0 -5 -4 -10 -10 -10 -5 0 -10 5 -10 10 0 6 5 10 10 10 6 0 10 -4 10 -10z m40
0 c0 -5 -4 -10 -10 -10 -5 0 -10 5 -10 10 0 6 5 10 10 10 6 0 10 -4 10 -10z
m4 -86 c7 -17 -25 -35 -56 -31 -30 5 -29 28 1 43 27 14 47 9 55 -12z m-70
-489 c-9 -14 -18 -25 -21 -25 -5 0 5 18 20 38 17 22 18 13 1 -13z m-328 -14
c-9 -14 17 -29 46 -26 20 3 25 0 21 -11 -3 -8 -1 -14 5 -14 6 0 13 6 15 13 3
6 4 -3 2 -20 -2 -18 1 -35 6 -38 13 -9 11 -25 -4 -25 -7 0 -19 -9 -27 -20 -11
-15 -26 -20 -62 -20 -62 0 -78 24 -52 78 10 20 17 43 15 51 -4 21 7 41 24 41
9 0 14 -4 11 -9z m124 -65 c0 -3 -4 -8 -10 -11 -5 -3 -10 -1 -10 4 0 6 5 11
10 11 6 0 10 -2 10 -4z m-204 -121 c16 -12 16 -14 3 -15 -9 0 -22 7 -29 15
-16 19 0 19 26 0z"/>
<path d="M2660 1650 c0 -11 81 -94 125 -127 55 -42 201 -104 190 -80 -4 7 0 4
8 -6 27 -33 107 -42 107 -12 0 14 -57 35 -92 35 -10 0 -23 9 -30 20 -7 11 -19
20 -26 20 -6 0 -20 9 -29 20 -10 11 -25 20 -34 20 -25 0 -172 80 -187 101 -14
20 -32 25 -32 9z"/>
<path d="M1537 1606 c-47 -11 -47 -11 -27 -28 11 -10 20 -15 20 -11 0 4 5 2
11 -4 8 -8 8 -17 0 -31 -8 -15 -6 -23 8 -36 18 -16 20 -15 45 29 29 48 31 89
6 91 -8 1 -36 -3 -63 -10z"/>
<path d="M825 1555 c-27 -21 -27 -23 -7 -18 12 3 27 14 33 24 13 24 10 24 -26
-6z"/>
<path d="M2387 1503 c-4 -3 -7 -37 -7 -75 0 -64 -9 -83 -27 -55 -13 21 -74 67
-88 67 -25 0 -45 -76 -45 -169 0 -194 119 -455 316 -691 74 -90 279 -292 313
-310 31 -16 45 1 60 72 24 111 -1 252 -73 411 -15 33 -23 57 -19 55 4 -1 55
-34 111 -71 146 -95 328 -189 361 -185 24 3 26 7 29 51 6 89 -52 234 -142 353
-57 77 -224 237 -308 297 -91 65 -262 169 -357 216 -78 40 -110 48 -124 34z"/>
<path d="M1752 1393 c-124 -90 -236 -315 -291 -588 -37 -189 -38 -544 0 -591
5 -6 6 -14 2 -17 -6 -6 48 21 95 47 68 39 157 168 192 277 33 106 46 115 60
42 25 -127 44 -202 79 -313 59 -188 53 -181 117 -126 48 41 93 123 126 226 21
68 23 93 22 260 0 204 -15 301 -79 540 -67 249 -82 268 -151 186 -51 -61 -64
-60 -64 8 0 30 -3 61 -6 70 -10 26 -46 18 -102 -21z"/>
<path d="M588 1353 c-7 -10 -20 -19 -28 -21 -15 -3 -85 -74 -137 -141 -26 -31
-26 -34 -9 -46 55 -41 365 -33 356 9 -1 5 4 12 10 16 20 13 1 30 -32 30 -19 0
-41 9 -55 22 -20 19 -25 20 -33 8 -8 -13 -12 -12 -24 5 -9 11 -16 28 -16 37 0
9 -8 22 -17 27 -17 10 -17 12 -1 41 18 32 8 42 -14 13z m-12 -80 c-10 -10 -19
5 -10 18 6 11 8 11 12 0 2 -7 1 -15 -2 -18z m41 -60 c3 -7 -3 -9 -17 -6 -29 8
-37 25 -9 21 12 -1 24 -8 26 -15z"/>
</g>
</svg>
